<svg width="359" height="647" viewBox="0 0 359 647" fill="none" xmlns="http://www.w3.org/2000/svg">
<path d="M95.9999 48.5C26.3332 189.333 -27.0001 498.2 317 607" stroke="#D33A8A" stroke-width="5"/>
<path d="M93.5001 58.5C60.3334 103.167 -0.499922 206.2 21.5001 261C49.0001 329.5 89.5 395 115.5 492.5C141.5 590 258 621 314.5 617.5" stroke="#D33A8A"/>
<path d="M98.4999 51.5C56.8333 72.1667 -12.8001 143.3 41.9999 262.5C110.5 411.5 52 513 115.5 566C166.3 608.4 271.667 611 318 607" stroke="#7230B0" stroke-width="3"/>
<path d="M94.5 87C118.524 87 138 67.5244 138 43.5C138 19.4756 118.524 0 94.5 0C70.4756 0 51 19.4756 51 43.5C51 67.5244 70.4756 87 94.5 87Z" fill="#D33A8A"/>
<path d="M43.5 307C67.5244 307 87 287.524 87 263.5C87 239.476 67.5244 220 43.5 220C19.4756 220 0 239.476 0 263.5C0 287.524 19.4756 307 43.5 307Z" fill="#D854D5"/>
<path d="M68.5 437C92.5244 437 112 417.524 112 393.5C112 369.476 92.5244 350 68.5 350C44.4756 350 25 369.476 25 393.5C25 417.524 44.4756 437 68.5 437Z" fill="#D854D5"/>
<path d="M315.5 647C339.524 647 359 627.524 359 603.5C359 579.476 339.524 560 315.5 560C291.476 560 272 579.476 272 603.5C272 627.524 291.476 647 315.5 647Z" fill="#7230B0"/>
</svg>
