<svg width="713" height="666" viewBox="0 0 713 666" fill="none" xmlns="http://www.w3.org/2000/svg">
<path d="M53.7475 43.5C53.7475 43.5 -164.803 479.291 668.236 616.184" stroke="#D854D5" stroke-width="5"/>
<path d="M45.1756 66.167C45.1756 66.167 -41.3764 118.907 45.1756 218.006C131.728 317.105 84.9426 396.852 172.776 464.691C260.609 532.53 568.535 497.44 663.381 617.806" stroke="#D33A8A"/>
<path d="M63.6777 66.167C63.6777 66.167 -42.6523 325.611 23.9097 380.9C90.4717 436.189 191.06 369.416 264.853 464.475C338.646 559.534 541.523 685.641 642.111 619.075" stroke="#7230B0" stroke-width="3"/>
<path d="M53.7476 87C77.7719 87 97.2476 67.5244 97.2476 43.5C97.2476 19.4756 77.7719 0 53.7476 0C29.7232 0 10.2476 19.4756 10.2476 43.5C10.2476 67.5244 29.7232 87 53.7476 87Z" fill="#D33A8A"/>
<path d="M54.7476 340C78.7719 340 98.2476 320.524 98.2476 296.5C98.2476 272.476 78.7719 253 54.7476 253C30.7232 253 11.2476 272.476 11.2476 296.5C11.2476 320.524 30.7232 340 54.7476 340Z" fill="#D854D5"/>
<path d="M285.748 544C309.772 544 329.248 524.524 329.248 500.5C329.248 476.476 309.772 457 285.748 457C261.723 457 242.248 476.476 242.248 500.5C242.248 524.524 261.723 544 285.748 544Z" fill="#D854D5"/>
<path d="M668.748 666C692.772 666 712.248 646.524 712.248 622.5C712.248 598.476 692.772 579 668.748 579C644.723 579 625.248 598.476 625.248 622.5C625.248 646.524 644.723 666 668.748 666Z" fill="#7230B0"/>
</svg>
