<svg width="355" height="711" viewBox="0 0 355 711" fill="none" xmlns="http://www.w3.org/2000/svg">
<path d="M178 37.9517C90.1668 138.195 -5.59991 406.82 314 679.379" stroke="#D854D5" stroke-width="5"/>
<path d="M166.5 50.3234C92.3335 85.3767 -41.6998 187.459 15.5002 315.364C87.0002 475.245 290 542.338 311 672.242" stroke="#7230B0" stroke-width="3"/>
<path d="M182.5 49.3717C143.334 72.8463 65.9002 140.161 69.5002 221.624C74.0002 323.453 130.5 384.836 156.5 484.286C182.5 583.736 256.5 650.353 299 671.766" stroke="#D33A8A"/>
<path d="M178.5 83.632C202.524 83.632 222 65.0975 222 42.2342C222 19.3708 202.524 0.836426 178.5 0.836426C154.476 0.836426 135 19.3708 135 42.2342C135 65.0975 154.476 83.632 178.5 83.632Z" fill="#D33A8A"/>
<path d="M91.5 324.405C115.524 324.405 135 305.871 135 283.007C135 260.144 115.524 241.61 91.5 241.61C67.4756 241.61 48 260.144 48 283.007C48 305.871 67.4756 324.405 91.5 324.405Z" fill="#D854D5"/>
<path d="M148.5 518.547C172.524 518.547 192 500.012 192 477.149C192 454.285 172.524 435.751 148.5 435.751C124.476 435.751 105 454.285 105 477.149C105 500.012 124.476 518.547 148.5 518.547Z" fill="#D854D5"/>
<path d="M311.5 710.784C335.524 710.784 355 692.25 355 669.387C355 646.523 335.524 627.989 311.5 627.989C287.476 627.989 268 646.523 268 669.387C268 692.25 287.476 710.784 311.5 710.784Z" fill="#7230B0"/>
</svg>
