<svg width="30" height="30" viewBox="0 0 30 30" fill="none" xmlns="http://www.w3.org/2000/svg">
<path d="M15 30C23.2843 30 30 23.2843 30 15C30 6.71573 23.2843 0 15 0C6.71573 0 0 6.71573 0 15C0 23.2843 6.71573 30 15 30Z" fill="#B8388F"/>
<path d="M15.7889 18.9851C15.6954 19.1053 15.5757 19.2027 15.4389 19.2696C15.302 19.3365 15.1517 19.3713 14.9994 19.3713C14.8471 19.3713 14.6968 19.3365 14.5599 19.2696C14.4231 19.2027 14.3034 19.1053 14.2099 18.9851L9.2549 12.6141C9.13991 12.4663 9.06875 12.2891 9.0495 12.1029C9.03025 11.9166 9.06369 11.7287 9.14602 11.5605C9.22835 11.3923 9.35625 11.2506 9.51517 11.1515C9.67409 11.0524 9.85763 11 10.0449 11.0001L19.9549 11.0001C20.1421 11.0001 20.3255 11.0527 20.4843 11.1519C20.643 11.251 20.7708 11.3927 20.853 11.5609C20.9352 11.7291 20.9686 11.9169 20.9493 12.1031C20.93 12.2893 20.8588 12.4663 20.7439 12.6141L15.7889 18.9851Z" fill="white"/>
</svg>
